<svg width="49" height="54" viewBox="0 0 49 54" fill="none" xmlns="http://www.w3.org/2000/svg">
<path d="M24.2068 0.874512C24.2068 0.874512 27.1396 4.46716 34.9064 6.13772C43.0623 7.89187 47.798 3.40845 47.798 3.40845C47.798 3.40845 48.4787 12.3168 45.4298 25.4356C42.0095 40.1532 33.7663 47.1706 24.2068 53.3401C14.6474 47.1706 6.40412 40.1532 2.98385 25.4356C-0.065024 12.3168 0.615635 3.40845 0.615635 3.40845C0.615635 3.40845 5.35133 7.89187 13.5073 6.13772C21.2741 4.46642 24.2068 0.874512 24.2068 0.874512Z" fill="white"/>
<path d="M24.2065 54L23.9061 53.8062C15.4253 48.3328 6.07451 41.1853 2.44265 25.5614C-0.589949 12.5107 0.0551875 3.45578 0.061846 3.36552L0.149889 2.20989L0.996261 3.00374C1.04213 3.04665 5.64392 7.26151 13.39 5.59391C20.8394 3.99143 23.7492 0.555614 23.7781 0.520842L24.2079 0L24.6355 0.521587C24.6888 0.584473 27.6045 3.99809 35.0221 5.59391C42.7719 7.26077 47.3708 3.04591 47.4166 3.00374L48.2615 2.21064L48.351 3.36552C48.3577 3.45578 49.0028 12.5099 45.9695 25.5614C42.3391 41.1853 32.9876 48.3328 24.5068 53.8062L24.2065 54ZM1.12351 4.51375C1.05397 7.24227 1.12796 15.0024 3.52281 25.3098C6.68414 38.9147 13.7821 45.9062 24.2057 52.6786C34.6285 45.9069 41.7265 38.9147 44.8879 25.3098C47.2857 14.9921 47.3582 7.23931 47.2879 4.51375C45.5175 5.75298 41.1842 8.05536 34.7883 6.68C28.4798 5.32314 25.2866 2.73222 24.2057 1.68017C23.1248 2.73148 19.9324 5.3224 13.6231 6.68C7.22939 8.05388 2.89394 5.75298 1.12351 4.51375Z" fill="#383838"/>
</svg>
